
        <svg xmlns="http://www.w3.org/2000/svg" xmlns:xlink="http://www.w3.org/1999/xlink" version="1.1" width="3162.2632417413315" 
        height="901.7908439076192" viewBox="0 0 3162.2632417413315 901.7908439076192">
			
			<g transform="scale(8.113162087066575) translate(10, 10)">
				<defs id="SvgjsDefs1416"></defs><g id="SvgjsG1417" featureKey="hmhgWD-0" transform="matrix(1.0358730410277208,0,0,1.0358730410277208,-5.178747776692176,-1.7179571956079727)" fill="#ff7f5b"><path xmlns="http://www.w3.org/2000/svg" d="M65.369,18.946c-7.581,7.581-8.215,15.848-5.816,21.288c0.223,0.502,0.184,1.118-0.309,1.554L19.353,77.234  c-3.376,3-3.221,6.57,0.082,9.873c3.303,3.304,6.872,3.457,9.871,0.082l35.448-39.893c0.438-0.491,1.051-0.529,1.555-0.308  c5.439,2.397,13.705,1.763,21.287-5.817c8.01-8.009,9.946-19.702,3.711-25.938C85.07,8.998,73.379,10.937,65.369,18.946z"></path><path xmlns="http://www.w3.org/2000/svg" d="M34.412,46.546c0.46-0.299,1.037-0.321,1.474,0.171l5.617,6.313l6.57-5.837l-6.695-5.957  c-0.491-0.438-0.47-1.015-0.17-1.474c3.543-5.437,1.646-11.108-3.436-15.376L21.471,11.021c-1.066-0.867-2.132-0.93-3.061-0.001  c-0.932,0.932-0.93,2.134-0.001,3.063l13.49,13.487c0.982,0.984,0.982,2.25,0,3.232l-0.074,0.075c-0.982,0.981-2.25,0.981-3.233,0  L15.104,17.388c-0.93-0.929-2.132-0.93-3.063,0.001c-0.931,0.931-0.93,2.133,0.001,3.061l13.487,13.49  c0.984,0.983,0.984,2.25,0,3.231l-0.072,0.075c-0.982,0.981-2.25,0.981-3.233-0.001L8.735,23.756c-0.93-0.929-2.132-0.931-3.062,0  c-0.93,0.93-0.866,1.995,0.001,3.061l13.365,16.301C23.308,48.201,28.975,50.09,34.412,46.546z"></path><path xmlns="http://www.w3.org/2000/svg" d="M81.844,77.241L59.965,57.773l-7.117,8.009l19.047,21.407c2.998,3.375,6.565,3.217,9.866-0.084  C85.063,83.809,85.217,80.24,81.844,77.241z"></path></g><g id="SvgjsG1418" featureKey="1RRcwp-0" transform="matrix(2.542272221437145,0,0,2.542272221437145,109.69504623335669,16.475111345544438)" fill="#393939"><path d="M3.96 20 l-2.66 0 l0 -14.24 l9.36 0 l0 2.62 l-6.7 0 l0 2.1 l3.7 0 l0 2.64 l-3.7 0 l0 6.88 z M14.559999999999999 20.22 c-1.24 0 -2.46 -0.5 -3.4 -1.4 c-0.9 -0.94 -1.4 -2.16 -1.4 -3.4 c0 -1.26 0.5 -2.48 1.4 -3.4 c0.92 -0.88 2.12 -1.38 3.4 -1.38 c1.32 0 2.52 0.5 3.38 1.38 c0.92 0.92 1.42 2.12 1.42 3.4 s-0.5 2.48 -1.42 3.4 c-0.9 0.9 -2.1 1.4 -3.38 1.4 z M14.559999999999999 12.92 c-1.34 0 -2.44 1.12 -2.44 2.5 s1.1 2.5 2.44 2.5 c1.36 0 2.46 -1.12 2.46 -2.5 s-1.1 -2.5 -2.46 -2.5 z M25.520000000000003 20.22 c-1.24 0 -2.46 -0.5 -3.4 -1.4 c-0.9 -0.94 -1.4 -2.16 -1.4 -3.4 c0 -1.26 0.5 -2.48 1.4 -3.4 c0.92 -0.88 2.12 -1.38 3.4 -1.38 c1.32 0 2.52 0.5 3.38 1.38 c0.92 0.92 1.42 2.12 1.42 3.4 s-0.5 2.48 -1.42 3.4 c-0.9 0.9 -2.1 1.4 -3.38 1.4 z M25.520000000000003 12.92 c-1.34 0 -2.44 1.12 -2.44 2.5 s1.1 2.5 2.44 2.5 c1.36 0 2.46 -1.12 2.46 -2.5 s-1.1 -2.5 -2.46 -2.5 z M36.46 20.18 c-1.26 0 -2.46 -0.48 -3.38 -1.38 c-0.9 -0.92 -1.4 -2.12 -1.4 -3.38 s0.5 -2.46 1.4 -3.38 c0.9 -0.9 2.1 -1.38 3.38 -1.38 c0.84 0 1.6 0.3 2.26 0.9 l0.1 0.08 l0 -6.32 l2.42 0 l0 14.68 l-2.42 0 l0 -0.72 l-0.1 0.1 c-0.72 0.7 -1.54 0.8 -2.26 0.8 z M36.46 13 c-1.28 0 -2.36 1.12 -2.36 2.42 c0 1.32 1.08 2.42 2.36 2.42 s2.36 -1.1 2.36 -2.42 c0 -1.3 -1.08 -2.42 -2.36 -2.42 z M59.540000000000006 20 l-2.68 0 l0 -6.9 l-5.78 0 l0 6.9 l-2.68 0 l0 -14.24 l2.68 0 l0 4.72 l5.78 0 l0 -4.72 l2.68 0 l0 14.24 z M66.28 20.18 c-1.26 0 -2.46 -0.48 -3.38 -1.38 c-0.9 -0.92 -1.4 -2.12 -1.4 -3.38 s0.5 -2.46 1.4 -3.38 c0.9 -0.9 2.1 -1.38 3.38 -1.38 c0.84 0 1.6 0.3 2.26 0.9 l0.1 0.08 l0 -0.8 l2.42 0 l0 9.16 l-2.42 0 l0 -0.72 l-0.1 0.1 c-0.72 0.7 -1.54 0.8 -2.26 0.8 z M66.28 13 c-1.28 0 -2.36 1.12 -2.36 2.42 c0 1.32 1.08 2.42 2.36 2.42 s2.36 -1.1 2.36 -2.42 c0 -1.3 -1.08 -2.42 -2.36 -2.42 z M78.4 20 l-2.2 0 l-3.72 -9.16 l2.58 0 l2.24 5.48 l2.22 -5.48 l2.6 0 z M87.32 20.22 l-0.02 0 c-0.58 0 -1.18 -0.14 -1.74 -0.4 c-0.52 -0.22 -1 -0.58 -1.44 -1.04 c-0.7 -0.76 -1.12 -1.76 -1.22 -2.8 c-0.02 -0.18 -0.04 -0.36 -0.04 -0.56 c0 -0.4 0.06 -0.82 0.16 -1.24 c0.18 -0.8 0.56 -1.54 1.1 -2.1 c0.4 -0.44 0.86 -0.78 1.44 -1.06 c0.54 -0.26 1.14 -0.38 1.76 -0.38 c0.64 0 1.22 0.12 1.76 0.38 c0.6 0.28 1.08 0.64 1.44 1.06 c0.52 0.56 0.92 1.28 1.12 2.1 c0.1 0.38 0.14 0.78 0.14 1.24 l0 0.46 l-6.72 0 l0.02 0.14 c0.26 1.24 1.2 2.14 2.24 2.14 l0.02 0 c0.58 -0.04 1.22 -0.4 1.6 -0.72 l0.22 -0.18 l1.66 1.44 l-0.3 0.26 c-0.22 0.2 -0.5 0.44 -0.8 0.6 l-0.02 0 c-0.72 0.42 -1.5 0.64 -2.38 0.66 z M87.32 12.719999999999999 c-0.78 0 -1.56 0.54 -1.98 1.38 l-0.08 0.16 l4.14 0 l-0.08 -0.16 c-0.46 -0.86 -1.22 -1.38 -2 -1.38 z M102.29999999999998 20 l-2.52 0 l0 -4.9 c0 -1.08 -0.86 -1.92 -1.94 -1.92 c-1.04 0 -1.94 0.86 -1.94 1.92 l0 4.9 l-2.5 0 l0 -9.16 l2.5 0 l0 0.66 c0.62 -0.62 1.28 -0.84 1.94 -0.84 c1.2 0 2.32 0.46 3.16 1.28 c0.84 0.86 1.3 1.98 1.3 3.16 l0 4.9 z"></path></g>
			</g>
		</svg>
	